<?xml version="1.0" encoding="UTF-8"?>
<svg width="40px" height="40px" viewBox="0 0 40 40" version="1.1" xmlns="http://www.w3.org/2000/svg" xmlns:xlink="http://www.w3.org/1999/xlink">
    <title>arrow_right_out</title>
    <g id="arrow_right_out" stroke="none" stroke-width="1" fill="none" fill-rule="evenodd">
        <path d="M20.225,29.99975 C20.423,29.99975 20.622,29.92375 20.773,29.77075 C21.076,29.46475 21.076,28.96975 20.773,28.66475 L12.934,20.74975 L29.203,20.74975 C29.617,20.74975 29.953,20.41375 29.953,19.99975 C29.953,19.58575 29.617,19.24975 29.203,19.24975 L12.934,19.24975 L20.773,11.33475 C21.076,11.02975 21.076,10.53475 20.773,10.22875 C20.471,9.92375 19.979,9.92375 19.677,10.22875 L10,19.99975 L19.677,29.77075 C19.829,29.92375 20.027,29.99975 20.225,29.99975" id="Fill-1-Copy" fill="#4E3836" transform="translate(19.976500, 19.999875) scale(-1, 1) translate(-19.976500, -19.999875) "></path>
    </g>
</svg>