<?xml version="1.0" encoding="UTF-8"?>
<svg width="40px" height="40px" viewBox="0 0 40 40" version="1.1" xmlns="http://www.w3.org/2000/svg" xmlns:xlink="http://www.w3.org/1999/xlink">
    <title>cart_out</title>
    <defs>
        <polygon id="path-1" points="0 0.0003 21.9998 0.0003 21.9998 25.2041 0 25.2041"></polygon>
    </defs>
    <g id="cart_out" stroke="none" stroke-width="1" fill="none" fill-rule="evenodd">
        <g id="Group-3" transform="translate(9.000000, 7.000000)">
            <mask id="mask-2" fill="white">
                <use xlink:href="#path-1"></use>
            </mask>
            <g id="Clip-2"></g>
            <path d="M1.5488,6.7563 L5.4998,6.7563 L5.4998,9.2103 C5.4998,9.6463 5.8208,10.0003 6.2168,10.0003 C6.6128,10.0003 6.9348,9.6463 6.9348,9.2103 L6.9348,6.7563 L15.0658,6.7563 L15.0658,9.2103 C15.0658,9.6463 15.3868,10.0003 15.7828,10.0003 C16.1788,10.0003 16.4998,9.6463 16.4998,9.2103 L16.4998,6.7563 L20.4508,6.7563 L20.4508,20.3283 C20.4508,22.1603 18.9638,23.6523 17.1348,23.6523 L4.8648,23.6523 C3.0368,23.6523 1.5488,22.1603 1.5488,20.3283 L1.5488,6.7563 Z M10.9998,1.5793 C12.9778,1.5793 14.6258,3.1423 14.9868,5.2043 L7.0128,5.2043 C7.3748,3.1423 9.0228,1.5793 10.9998,1.5793 L10.9998,1.5793 Z M4.8648,25.2043 L17.1348,25.2043 C19.8178,25.2043 21.9998,23.0163 21.9998,20.3283 L21.9998,5.2043 L16.4398,5.2043 C16.0628,2.2683 13.7708,0.0003 10.9998,0.0003 C8.2298,0.0003 5.9378,2.2683 5.5608,5.2043 L-0.0002,5.2043 L-0.0002,20.3283 C-0.0002,23.0163 2.1828,25.2043 4.8648,25.2043 L4.8648,25.2043 Z" id="Fill-1" fill="#FFFFFF" mask="url(#mask-2)"></path>
        </g>
    </g>
</svg>