<?xml version="1.0" encoding="UTF-8"?>
<svg width="40px" height="40px" viewBox="0 0 40 40" version="1.1" xmlns="http://www.w3.org/2000/svg" xmlns:xlink="http://www.w3.org/1999/xlink">
    <title>circle_arrow_up_out</title>
    <defs>
        <polygon id="path-1" points="0.0001 0.0004 26 0.0004 26 26 0.0001 26"></polygon>
    </defs>
    <g id="circle_arrow_up_out" stroke="none" stroke-width="1" fill="none" fill-rule="evenodd">
        <g id="Group-6-Copy-6" transform="translate(20.000000, 20.000000) rotate(270.000000) translate(-20.000000, -20.000000) translate(7.000000, 7.000000)">
            <g id="Group-3" transform="translate(0.000000, -0.000100)">
                <mask id="mask-2" fill="white">
                    <use xlink:href="#path-1"></use>
                </mask>
                <g id="Clip-2"></g>
                <path d="M13.0001,24.5284 C6.6431,24.5284 1.4721,19.3564 1.4721,13.0004 C1.4721,6.6434 6.6431,1.4714 13.0001,1.4714 C19.3561,1.4714 24.5281,6.6434 24.5281,13.0004 C24.5281,19.3564 19.3561,24.5284 13.0001,24.5284 M13.0001,0.0004 C5.8321,0.0004 0.0001,5.8314 0.0001,13.0004 C0.0001,20.1684 5.8321,26.0004 13.0001,26.0004 C20.1681,26.0004 26.0001,20.1684 26.0001,13.0004 C26.0001,5.8314 20.1681,0.0004 13.0001,0.0004" id="Fill-1" fill="#FFFFFF" mask="url(#mask-2)"></path>
            </g>
            <path d="M13.6094,6.5 C13.4244,6.5 13.2394,6.57 13.0994,6.711 C12.8174,6.994 12.8174,7.451 13.0994,7.733 L17.6164,12.25 L5.1174,12.25 C4.7034,12.25 4.3674,12.586 4.3674,13 C4.3674,13.414 4.7034,13.75 5.1174,13.75 L17.6164,13.75 L13.0994,18.267 C12.8174,18.549 12.8174,19.006 13.0994,19.288 C13.3804,19.57 13.8384,19.57 14.1204,19.288 L20.4084,13 L14.1204,6.711 C13.9794,6.57 13.7944,6.5 13.6094,6.5" id="Fill-4" fill="#FFFFFF"></path>
        </g>
    </g>
</svg>