<?xml version="1.0" encoding="UTF-8"?>
<svg width="40px" height="40px" viewBox="0 0 40 40" version="1.1" xmlns="http://www.w3.org/2000/svg" xmlns:xlink="http://www.w3.org/1999/xlink">
    <title>global_out</title>
    <defs>
        <polygon id="path-1" points="0 0 25.9996 0 25.9996 25.9999 0 25.9999"></polygon>
    </defs>
    <g id="global_out" stroke="none" stroke-width="1" fill="none" fill-rule="evenodd">
        <g id="Group-3" transform="translate(7.000000, 7.000000)">
            <mask id="mask-2" fill="white">
                <use xlink:href="#path-1"></use>
            </mask>
            <g id="Clip-2"></g>
            <path d="M17.7256,23.5039 C19.5786,21.2929 20.7946,17.7919 20.9286,13.7359 L24.4916,13.7359 C24.2136,18.0909 21.5176,21.7919 17.7256,23.5039 L17.7256,23.5039 Z M1.5086,13.7359 L5.0716,13.7359 C5.2046,17.7919 6.4216,21.2929 8.2746,23.5039 C4.4826,21.7919 1.7866,18.0909 1.5086,13.7359 L1.5086,13.7359 Z M8.2746,2.4959 C6.4216,4.7079 5.2046,8.2079 5.0716,12.2639 L1.5086,12.2639 C1.7866,7.9089 4.4826,4.2089 8.2746,2.4959 L8.2746,2.4959 Z M13.7356,12.2639 L13.7356,1.5559 C16.7806,2.2019 19.2506,6.7799 19.4566,12.2639 L13.7356,12.2639 Z M13.7356,24.4439 L13.7356,13.7359 L19.4566,13.7359 C19.2506,19.2199 16.7806,23.7979 13.7356,24.4439 L13.7356,24.4439 Z M12.2646,13.7359 L12.2646,24.4439 C9.2196,23.7979 6.7486,19.2199 6.5436,13.7359 L12.2646,13.7359 Z M12.2646,1.5559 L12.2646,12.2639 L6.5436,12.2639 C6.7486,6.7799 9.2196,2.2019 12.2646,1.5559 L12.2646,1.5559 Z M24.4916,12.2639 L20.9286,12.2639 C20.7946,8.2079 19.5786,4.7079 17.7256,2.4959 C21.5176,4.2089 24.2136,7.9089 24.4916,12.2639 L24.4916,12.2639 Z M12.9996,-0.0001 C5.8316,-0.0001 -0.0004,5.8319 -0.0004,12.9999 C-0.0004,20.1689 5.8316,25.9999 12.9996,25.9999 C20.1686,25.9999 25.9996,20.1689 25.9996,12.9999 C25.9996,5.8319 20.1686,-0.0001 12.9996,-0.0001 L12.9996,-0.0001 Z" id="Fill-1" fill="#A36D6A" mask="url(#mask-2)"></path>
        </g>
    </g>
</svg>