<?xml version="1.0" encoding="utf-8"?>
<!-- Generator: Adobe Illustrator 24.0.1, SVG Export Plug-In . SVG Version: 6.00 Build 0)  -->
<svg version="1.1" id="레이어_1" xmlns="http://www.w3.org/2000/svg" xmlns:xlink="http://www.w3.org/1999/xlink" x="0px"
	 y="0px" viewBox="0 0 40 40" style="enable-background:new 0 0 40 40;" xml:space="preserve">
<style type="text/css">
	.st0{filter:url(#Adobe_OpacityMaskFilter);}
	.st1{fill-rule:evenodd;clip-rule:evenodd;fill:#FFFFFF;}
	.st2{mask:url(#mask-2_1_);fill-rule:evenodd;clip-rule:evenodd;fill:#FFFFFF;}
</style>
<title>kakaotalk_out</title>
<g id="kakaotalk_out">
	<g id="Group-3" transform="translate(7.000000, 7.000000)">
		<g id="Clip-2">
		</g>
		<defs>
			<filter id="Adobe_OpacityMaskFilter" filterUnits="userSpaceOnUse" x="0" y="0" width="25.6" height="24.4">
				<feColorMatrix  type="matrix" values="1 0 0 0 0  0 1 0 0 0  0 0 1 0 0  0 0 0 1 0"/>
			</filter>
		</defs>
		<mask maskUnits="userSpaceOnUse" x="0" y="0" width="25.6" height="24.4" id="mask-2_1_">
			<g class="st0">
				<polygon id="path-1_1_" class="st1" points="0,0 25.6,0 25.6,24.7 0,24.7 				"/>
			</g>
		</mask>
		<path id="Fill-1" class="st2" d="M12.8,1.5C9.9,1.5,7,2.4,4.9,4.1c-3.8,3.2-4.4,7.6-1.6,11.3c0.6,0.8,1.4,1.4,2.2,2.1
			c0.4,0.3,0.8,0.7,1.2,1.1l0.3,0.3l-0.8,3.5c1-0.7,1.9-1.4,3-2c0.8-0.5,1.7-0.7,2.4-0.7c2.9,0.1,5.5-0.5,7.8-1.8
			c2.6-1.5,4.2-3.8,4.5-6.3c0.3-2.6-0.8-5.2-3-7.1C18.9,2.5,15.8,1.5,12.8,1.5L12.8,1.5z M4.3,23.9l1.1-4.6
			c-0.3-0.2-0.6-0.5-0.9-0.7c-0.9-0.7-1.8-1.5-2.5-2.4c-3.4-4.3-2.6-9.6,1.8-13.4c4.7-4,13.5-3.8,18.1,0.3c2.5,2.3,3.8,5.4,3.5,8.5
			c-0.3,3.1-2.2,5.8-5.2,7.5c-2.6,1.4-5.4,2.1-8.6,2c-0.5,0-1.1,0.2-1.6,0.5c-1,0.6-1.9,1.3-2.9,1.9c-0.4,0.3-0.8,0.6-1.2,0.8"/>
	</g>
</g>
</svg>
