<svg id="레이어_1" data-name="레이어 1" xmlns="http://www.w3.org/2000/svg" viewBox="0 0 384.9 115.59"><defs><style>.cls-1{fill:#a36d6a;}</style></defs><path class="cls-1" d="M96.48,47.06l.46,3.09,7.55,2.78c.2,5.53.3,11.57.3,18.16V95.33c0,3.06,0,5.49-.07,7.37v10.89c3.68,0,7.31-.11,11-.11,3.48,0,7,.07,10.49.1V67.7h0V64q0-11.74.45-22.14l-.83-.6C116.5,43.27,108.88,45.21,96.48,47.06Z"/><path class="cls-1" d="M290.18,105.42q-12.94,0-19.92-7t-7-21.65q0-12.57,5.52-20.07t14.14-7.5a16.35,16.35,0,0,1,5.51.76l5.82,18.82,4.16-.67q2.05-11.69,4.77-22.29a57.87,57.87,0,0,0-22-4.3q-18,0-29.6,10.77T240,80.5q0,16,10.66,25.52t27.22,9.57a52.16,52.16,0,0,0,25.94-7.08l-.61-4.52A63.5,63.5,0,0,1,290.18,105.42Z"/><path class="cls-1" d="M113.46,27.46a12.84,12.84,0,1,0-12.77-12.84A12.79,12.79,0,0,0,113.46,27.46Z"/><path class="cls-1" d="M384.9,72.29q0-14.39-8.27-22.55t-23.48-8.18q-17.38,0-28.62,10.66T313.31,79.74q0,17.69,11.68,26.77t30.13,9.07a64.45,64.45,0,0,0,29.48-7.07l-.6-4.74a84.1,84.1,0,0,1-15.72,1.42q-17,0-24.47-6.62c-5-4.43-7.44-11.67-7.44-21.77h48.31C384.82,75.25,384.9,73.75,384.9,72.29Zm-23-2.79H336.67a31.82,31.82,0,0,1,4.42-14.8q3.82-6.14,10.24-6.13a8.64,8.64,0,0,1,8,4.44q2.6,4.45,2.6,14.68Z"/><path class="cls-1" d="M78.91,91V64.53q0-11-6.26-17t-17.33-6c-8.31,0-16.72,7.23-25.25,12.3V22.73Q30.07,11,30.53.6L29.7,0C20.33,2,12.6,4,0,5.79L.45,8.88l7.85,3q.3,8.28.3,18.14V95.93c0,2.48,0,5.06,0,7.71v9.89q5.46-.06,11-.06t10.56.06V97.7c0-3.1-.05-6.34-.05-9.74V61.18C33.28,58.25,38.82,52,43,52q7.19,0,10.82,4t3.62,13.29v31.54c0,1.23,0,2.25,0,3.05v9.67c3.53,0,7.26-.07,11.21-.07,3.45,0,6.86.08,10.29.11V95.42C78.91,94,78.91,92.55,78.91,91Z"/><path class="cls-1" d="M223.58,91V64.53q0-11-6.27-17t-17.32-6c-8.32,0-16.73,7.5-25.25,13.12V41.94l-1.13-.6c-9.63,2.11-17,4-28.65,5.72l.46,3.09L153,52.94q.31,8.36.31,18.22V95.93q0,4.44-.08,9.26a.54.54,0,0,0,0,.08v8.26q5.49-.06,11-.06c3.65,0,7.15,0,10.52.06V92.42h0c0-1.46,0-2.94,0-4.46V62.64C177.33,59.42,183.49,52,187.66,52q7.2,0,10.82,4c2.2,2.43,3.34,6.39,3.54,11.71l0,37.18v8.66c3.55,0,7.28-.07,11.23-.07,3.48,0,6.9.08,10.35.11V100.83C223.6,98.17,223.58,94.93,223.58,91Z"/></svg>