<?xml version="1.0" encoding="UTF-8"?>
<svg width="40px" height="40px" viewBox="0 0 40 40" version="1.1" xmlns="http://www.w3.org/2000/svg" xmlns:xlink="http://www.w3.org/1999/xlink">
    <title>account_out</title>
    <defs>
        <polygon id="path-1" points="0 0.2521 17.9996 0.2521 17.9996 10 0 10"></polygon>
    </defs>
    <g id="account_out" stroke="none" stroke-width="1" fill="none" fill-rule="evenodd">
        <g id="Group-6" transform="translate(11.000000, 9.000000)">
            <path d="M9,1.4683 C11.294,1.4683 13.16,3.3353 13.16,5.6283 C13.16,7.9223 11.294,9.7893 9,9.7893 C6.706,9.7893 4.84,7.9223 4.84,5.6283 C4.84,3.3353 6.706,1.4683 9,1.4683 M9,11.2573 C12.104,11.2573 14.628,8.7323 14.628,5.6283 C14.628,2.5253 12.104,0.0003 9,0.0003 C5.896,0.0003 3.372,2.5253 3.372,5.6283 C3.372,8.7323 5.896,11.2573 9,11.2573" id="Fill-1" fill="#FFFFFF"></path>
            <g id="Group-5" transform="translate(0.000000, 12.248900)">
                <mask id="mask-2" fill="white">
                    <use xlink:href="#path-1"></use>
                </mask>
                <g id="Clip-4"></g>
                <path d="M0.7476,10.0001 C1.1606,10.0001 1.4956,9.6661 1.4956,9.2521 L1.4956,6.6391 C1.4956,3.9421 3.5956,1.7481 6.1776,1.7481 L11.8226,1.7481 C14.4046,1.7481 16.5046,3.9421 16.5046,6.6391 L16.5046,9.2521 C16.5046,9.6661 16.8396,10.0001 17.2526,10.0001 C17.6656,10.0001 17.9996,9.6661 17.9996,9.2521 L17.9996,6.6391 C17.9996,3.1171 15.2286,0.2521 11.8226,0.2521 L6.1776,0.2521 C2.7716,0.2521 -0.0004,3.1171 -0.0004,6.6391 L-0.0004,9.2521 C-0.0004,9.6661 0.3346,10.0001 0.7476,10.0001" id="Fill-3" fill="#FFFFFF" mask="url(#mask-2)"></path>
            </g>
        </g>
    </g>
</svg>