<?xml version="1.0" encoding="UTF-8"?>
<svg width="40px" height="40px" viewBox="0 0 40 40" version="1.1" xmlns="http://www.w3.org/2000/svg" xmlns:xlink="http://www.w3.org/1999/xlink">
    <title>search_out</title>
    <defs>
        <polygon id="path-1" points="0 0.5544 7 0.5544 7 7.5544 0 7.5544"></polygon>
    </defs>
    <g id="search_out" stroke="none" stroke-width="1" fill="none" fill-rule="evenodd">
        <g id="Group-6" transform="translate(10.000000, 9.000000)">
            <path d="M8.5,1.4571 C12.383,1.4571 15.543,4.6171 15.543,8.5001 C15.543,12.3841 12.383,15.5431 8.5,15.5431 C4.617,15.5431 1.457,12.3841 1.457,8.5001 C1.457,4.6171 4.617,1.4571 8.5,1.4571 M8.5,17.0001 C13.187,17.0001 17,13.1871 17,8.5001 C17,3.8131 13.187,0.0001 8.5,0.0001 C3.813,0.0001 0,3.8131 0,8.5001 C0,13.1871 3.813,17.0001 8.5,17.0001" id="Fill-1" fill="#4E3836"></path>
            <g id="Group-5" transform="translate(14.000000, 13.445600)">
                <mask id="mask-2" fill="white">
                    <use xlink:href="#path-1"></use>
                </mask>
                <g id="Clip-4"></g>
                <path d="M0.237105241,0.79151512 C-0.0790350804,1.10766861 -0.0790350804,1.61981394 0.237105241,1.93596743 L5.61732356,7.31640992 C5.775977,7.47506997 5.9824598,7.5544 6.19010916,7.5544 C6.39659195,7.5544 6.60424131,7.47506997 6.76289476,7.31640992 C7.07903508,7.00025642 7.07903508,6.4881111 6.76289476,6.1719576 L1.38150987,0.79151512 C1.06536955,0.475361627 0.553245563,0.475361627 0.237105241,0.79151512" id="Fill-3" fill="#4E3836" mask="url(#mask-2)"></path>
            </g>
        </g>
    </g>
</svg>