<?xml version="1.0" encoding="utf-8"?>
<!-- Generator: Adobe Illustrator 24.0.1, SVG Export Plug-In . SVG Version: 6.00 Build 0)  -->
<svg version="1.1" id="레이어_1" xmlns="http://www.w3.org/2000/svg" xmlns:xlink="http://www.w3.org/1999/xlink" x="0px"
	 y="0px" viewBox="0 0 40 40" style="enable-background:new 0 0 40 40;" xml:space="preserve">
<style type="text/css">
	.st0{fill-rule:evenodd;clip-rule:evenodd;fill:#FFFFFF;}
</style>
<title>youtube_out</title>
<g id="youtube_out">
	<g id="Group-3" transform="translate(6.000000, 9.000000)">
		<path id="Fill-1" class="st0" d="M3.9,20c1.6,0.6,3.3,0.9,5,0.9c5.1,0,8.3-2.3,10.2-4.2c2.7-2.8,4.2-6.8,4-10.6
			c0-0.3,0.1-0.5,0.3-0.7c0.3-0.2,0.5-0.4,0.8-0.6c-0.2,0-0.4,0.1-0.6,0.1c-0.4,0-0.7-0.2-0.8-0.5c-0.1-0.3,0-0.7,0.3-0.9
			s0.5-0.3,0.7-0.5c-0.4,0-0.8,0.1-1.2,0.2c-0.3,0-0.5,0-0.7-0.2c-0.8-0.9-2-1.4-3.3-1.4c-1.4,0-2.7,0.6-3.5,1.7
			c-0.9,1.1-1.2,2.5-0.9,3.8c0.1,0.2,0,0.5-0.2,0.7C13.8,8,13.6,8,13.4,8c-4-0.2-7.8-2-10.6-4.9C2.3,5,3,7,4.6,8.1
			C4.9,8.3,5,8.7,4.9,9S4.5,9.6,4.2,9.5c-0.5,0-1-0.1-1.5-0.2c0.4,1.6,1.8,2.9,3.5,3.3c0.3,0.1,0.6,0.4,0.6,0.7
			c0,0.4-0.2,0.7-0.6,0.8s-0.9,0.2-1.3,0.2c0.8,1.2,2.2,2,3.7,2c0.3,0,0.6,0.2,0.7,0.5c0.1,0.3,0,0.6-0.3,0.8
			C7.5,18.9,5.7,19.7,3.9,20 M8.8,22.4c-3,0-6-0.9-8.5-2.5C0.1,19.7-0.1,19.4,0,19c0.1-0.3,0.5-0.5,0.8-0.5c2,0.2,4-0.1,5.7-1
			c-1.7-0.6-3.1-2-3.6-3.8c-0.1-0.3,0-0.5,0.2-0.7l0.1-0.1C1.8,11.7,1,9.9,1,8.1c0-0.3,0.2-0.5,0.4-0.6c0.1-0.1,0.3-0.1,0.4-0.1
			c-1-1.8-1.1-4.1,0-6C2,1.1,2.2,1,2.5,1S3,1.1,3.2,1.2C5.5,4.1,8.9,6,12.5,6.4c-0.1-1.5,0.4-2.9,1.3-4.1C15,0.8,16.7,0,18.6,0
			c1.5,0,3,0.6,4.1,1.6c1-0.2,1.9-0.6,2.7-1.1c0.3-0.2,0.6-0.1,0.9,0.1c0.2,0.2,0.4,0.5,0.3,0.8c-0.1,0.4-0.3,0.9-0.6,1.2
			c0.1,0,0.2-0.1,0.2-0.1c0.3-0.1,0.7-0.1,0.9,0.2c0.2,0.3,0.2,0.6,0,0.9c-0.7,1-1.5,1.9-2.5,2.7c0.1,4.1-1.6,8.4-4.5,11.4
			C17.2,20.8,13.3,22.4,8.8,22.4"/>
	</g>
</g>
</svg>
